# MagicaVoxel @ Ephtracy

# group
o 

# material
mtllib Head.mtl
usemtl palette

# normals
vn -1 0 0
vn 1 0 0
vn 0 0 1
vn 0 0 -1
vn 0 -1 0
vn 0 1 0

# texcoords
vt 0.0605469 0.5
vt 0.974609 0.5
vt 0.978516 0.5
vt 0.982422 0.5
vt 0.986328 0.5
vt 0.994141 0.5

# verts
v 0 2.2 -0.2
v 0 2.2 -0.5
v 0 2.7 -0.2
v 0 2.7 -0.5
v 0.1 2.1 -0.2
v 0.1 2.1 -0.5
v 0.1 2.2 -0.1
v 0.1 2.2 -0.2
v 0.1 2.2 -0.5
v 0.1 2.2 -0.6
v 0.1 2.7 -0.1
v 0.1 2.7 -0.2
v 0.1 2.7 -0.5
v 0.1 2.7 -0.6
v 0.1 2.8 -0.2
v 0.1 2.8 -0.5
v 0.2 2 -0.2
v 0.2 2 -0.5
v 0.2 2.1 0
v 0.2 2.1 -0.1
v 0.2 2.1 -0.2
v 0.2 2.1 -0.5
v 0.2 2.1 -0.6
v 0.2 2.2 -0.1
v 0.2 2.2 -0.5
v 0.2 2.2 -0.6
v 0.2 2.2 -0.7
v 0.2 2.7 0
v 0.2 2.7 -0.1
v 0.2 2.7 -0.2
v 0.2 2.7 -0.5
v 0.2 2.7 -0.6
v 0.2 2.7 -0.7
v 0.2 2.8 -0.1
v 0.2 2.8 -0.2
v 0.2 2.8 -0.5
v 0.2 2.8 -0.6
v 0.2 2.9 -0.2
v 0.2 2.9 -0.5
v 0.3 2 -0.5
v 0.3 2 -0.6
v 0.3 2.1 -0.1
v 0.3 2.1 -0.2
v 0.3 2.1 -0.5
v 0.3 2.1 -0.6
v 0.3 2.1 -0.7
v 0.3 2.2 -0.1
v 0.3 2.2 -0.2
v 0.3 2.2 -0.6
v 0.3 2.2 -0.7
v 0.3 2.2 -0.8
v 0.3 2.7 0
v 0.3 2.7 -0.1
v 0.3 2.7 -0.6
v 0.3 2.7 -0.7
v 0.3 2.7 -0.8
v 0.3 2.8 0
v 0.3 2.8 -0.1
v 0.3 2.8 -0.2
v 0.3 2.8 -0.5
v 0.3 2.8 -0.6
v 0.3 2.8 -0.7
v 0.3 2.9 -0.1
v 0.3 2.9 -0.2
v 0.3 2.9 -0.5
v 0.3 2.9 -0.6
v 0.4 2 -0.1
v 0.4 2 -0.2
v 0.4 2 -0.6
v 0.4 2 -0.7
v 0.4 2.1 -0.1
v 0.4 2.1 -0.2
v 0.4 2.1 -0.6
v 0.4 2.1 -0.7
v 0.4 2.1 -0.8
v 0.4 2.2 -0.7
v 0.4 2.2 -0.8
v 0.4 2.3 0
v 0.4 2.3 -0.1
v 0.4 2.3 -0.8
v 0.4 2.3 -0.9
v 0.4 2.6 0
v 0.4 2.6 -0.1
v 0.4 2.6 -0.8
v 0.4 2.6 -0.9
v 0.4 2.7 -0.7
v 0.4 2.7 -0.8
v 0.4 2.8 0
v 0.4 2.8 -0.1
v 0.4 2.8 -0.6
v 0.4 2.8 -0.7
v 0.4 2.8 -0.8
v 0.4 2.9 0
v 0.4 2.9 -0.1
v 0.4 2.9 -0.6
v 0.4 2.9 -0.7
v 0.4 3 -0.1
v 0.4 3 -0.6
v 0.7 2.1 0
v 0.7 2.1 -0.1
v 0.7 2.2 0
v 0.7 2.2 -0.1
v 0.7 2.3 0
v 0.7 2.3 -0.1
v 0.7 2.6 0
v 0.7 2.6 -0.1
v 0.3 2.1 0
v 0.3 2.1 -0.1
v 0.3 2.2 0
v 0.3 2.2 -0.1
v 0.3 2.3 0
v 0.3 2.3 -0.1
v 0.3 2.6 0
v 0.3 2.6 -0.1
v 0.6 2 -0.1
v 0.6 2 -0.2
v 0.6 2 -0.6
v 0.6 2 -0.7
v 0.6 2.1 -0.1
v 0.6 2.1 -0.2
v 0.6 2.1 -0.6
v 0.6 2.1 -0.7
v 0.6 2.1 -0.8
v 0.6 2.2 -0.7
v 0.6 2.2 -0.8
v 0.6 2.3 0
v 0.6 2.3 -0.1
v 0.6 2.3 -0.8
v 0.6 2.3 -0.9
v 0.6 2.6 0
v 0.6 2.6 -0.1
v 0.6 2.6 -0.8
v 0.6 2.6 -0.9
v 0.6 2.7 -0.7
v 0.6 2.7 -0.8
v 0.6 2.8 0
v 0.6 2.8 -0.1
v 0.6 2.8 -0.6
v 0.6 2.8 -0.7
v 0.6 2.8 -0.8
v 0.6 2.9 0
v 0.6 2.9 -0.1
v 0.6 2.9 -0.6
v 0.6 2.9 -0.7
v 0.6 3 -0.1
v 0.6 3 -0.6
v 0.7 2 -0.5
v 0.7 2 -0.6
v 0.7 2.1 -0.1
v 0.7 2.1 -0.2
v 0.7 2.1 -0.5
v 0.7 2.1 -0.6
v 0.7 2.1 -0.7
v 0.7 2.2 -0.1
v 0.7 2.2 -0.2
v 0.7 2.2 -0.6
v 0.7 2.2 -0.7
v 0.7 2.2 -0.8
v 0.7 2.7 0
v 0.7 2.7 -0.1
v 0.7 2.7 -0.6
v 0.7 2.7 -0.7
v 0.7 2.7 -0.8
v 0.7 2.8 0
v 0.7 2.8 -0.1
v 0.7 2.8 -0.2
v 0.7 2.8 -0.5
v 0.7 2.8 -0.6
v 0.7 2.8 -0.7
v 0.7 2.9 -0.1
v 0.7 2.9 -0.2
v 0.7 2.9 -0.5
v 0.7 2.9 -0.6
v 0.8 2 -0.2
v 0.8 2 -0.5
v 0.8 2.1 0
v 0.8 2.1 -0.1
v 0.8 2.1 -0.2
v 0.8 2.1 -0.5
v 0.8 2.1 -0.6
v 0.8 2.2 -0.1
v 0.8 2.2 -0.5
v 0.8 2.2 -0.6
v 0.8 2.2 -0.7
v 0.8 2.7 0
v 0.8 2.7 -0.1
v 0.8 2.7 -0.2
v 0.8 2.7 -0.5
v 0.8 2.7 -0.6
v 0.8 2.7 -0.7
v 0.8 2.8 -0.1
v 0.8 2.8 -0.2
v 0.8 2.8 -0.5
v 0.8 2.8 -0.6
v 0.8 2.9 -0.2
v 0.8 2.9 -0.5
v 0.9 2.1 -0.2
v 0.9 2.1 -0.5
v 0.9 2.2 -0.1
v 0.9 2.2 -0.2
v 0.9 2.2 -0.5
v 0.9 2.2 -0.6
v 0.9 2.7 -0.1
v 0.9 2.7 -0.2
v 0.9 2.7 -0.5
v 0.9 2.7 -0.6
v 0.9 2.8 -0.2
v 0.9 2.8 -0.5
v 1 2.2 -0.2
v 1 2.2 -0.5
v 1 2.7 -0.2
v 1 2.7 -0.5
v 0.2 2.1 0
v 0.2 2.7 0
v 0.3 2.1 0
v 0.3 2.2 0
v 0.3 2.3 0
v 0.3 2.6 0
v 0.3 2.7 0
v 0.3 2.8 0
v 0.4 2.3 0
v 0.4 2.6 0
v 0.4 2.7 0
v 0.4 2.8 0
v 0.4 2.9 0
v 0.6 2.3 0
v 0.6 2.6 0
v 0.6 2.7 0
v 0.6 2.8 0
v 0.6 2.9 0
v 0.7 2.1 0
v 0.7 2.2 0
v 0.7 2.3 0
v 0.7 2.6 0
v 0.7 2.7 0
v 0.7 2.8 0
v 0.8 2.1 0
v 0.8 2.7 0
v 0.1 2.2 -0.1
v 0.1 2.7 -0.1
v 0.2 2.2 -0.1
v 0.2 2.7 -0.1
v 0.2 2.8 -0.1
v 0.3 2.1 -0.1
v 0.3 2.2 -0.1
v 0.3 2.3 -0.1
v 0.3 2.6 -0.1
v 0.3 2.7 -0.1
v 0.3 2.8 -0.1
v 0.3 2.9 -0.1
v 0.4 2 -0.1
v 0.4 2.1 -0.1
v 0.4 2.3 -0.1
v 0.4 2.6 -0.1
v 0.4 2.8 -0.1
v 0.4 2.9 -0.1
v 0.4 3 -0.1
v 0.6 2 -0.1
v 0.6 2.1 -0.1
v 0.6 2.3 -0.1
v 0.6 2.6 -0.1
v 0.6 2.8 -0.1
v 0.6 2.9 -0.1
v 0.6 3 -0.1
v 0.7 2.1 -0.1
v 0.7 2.2 -0.1
v 0.7 2.3 -0.1
v 0.7 2.6 -0.1
v 0.7 2.7 -0.1
v 0.7 2.8 -0.1
v 0.7 2.9 -0.1
v 0.8 2.2 -0.1
v 0.8 2.7 -0.1
v 0.8 2.8 -0.1
v 0.9 2.2 -0.1
v 0.9 2.7 -0.1
v 0 2.2 -0.2
v 0 2.7 -0.2
v 0.1 2.1 -0.2
v 0.1 2.2 -0.2
v 0.1 2.7 -0.2
v 0.1 2.8 -0.2
v 0.2 2 -0.2
v 0.2 2.1 -0.2
v 0.2 2.2 -0.2
v 0.2 2.7 -0.2
v 0.2 2.8 -0.2
v 0.2 2.9 -0.2
v 0.3 2 -0.2
v 0.3 2.1 -0.2
v 0.3 2.2 -0.2
v 0.3 2.8 -0.2
v 0.3 2.9 -0.2
v 0.4 2 -0.2
v 0.4 2.1 -0.2
v 0.6 2 -0.2
v 0.6 2.1 -0.2
v 0.7 2 -0.2
v 0.7 2.1 -0.2
v 0.7 2.2 -0.2
v 0.7 2.8 -0.2
v 0.7 2.9 -0.2
v 0.8 2 -0.2
v 0.8 2.1 -0.2
v 0.8 2.2 -0.2
v 0.8 2.7 -0.2
v 0.8 2.8 -0.2
v 0.8 2.9 -0.2
v 0.9 2.1 -0.2
v 0.9 2.2 -0.2
v 0.9 2.7 -0.2
v 0.9 2.8 -0.2
v 1 2.2 -0.2
v 1 2.7 -0.2
v 0.2 2.1 -0.1
v 0.2 2.2 -0.1
v 0.3 2.1 -0.1
v 0.3 2.2 -0.1
v 0.7 2.1 -0.1
v 0.7 2.2 -0.1
v 0.8 2.1 -0.1
v 0.8 2.2 -0.1
v 0 2.2 -0.5
v 0 2.7 -0.5
v 0.1 2.1 -0.5
v 0.1 2.2 -0.5
v 0.1 2.7 -0.5
v 0.1 2.8 -0.5
v 0.2 2 -0.5
v 0.2 2.1 -0.5
v 0.2 2.2 -0.5
v 0.2 2.7 -0.5
v 0.2 2.8 -0.5
v 0.2 2.9 -0.5
v 0.3 2 -0.5
v 0.3 2.1 -0.5
v 0.3 2.8 -0.5
v 0.3 2.9 -0.5
v 0.7 2 -0.5
v 0.7 2.1 -0.5
v 0.7 2.8 -0.5
v 0.7 2.9 -0.5
v 0.8 2 -0.5
v 0.8 2.1 -0.5
v 0.8 2.2 -0.5
v 0.8 2.7 -0.5
v 0.8 2.8 -0.5
v 0.8 2.9 -0.5
v 0.9 2.1 -0.5
v 0.9 2.2 -0.5
v 0.9 2.7 -0.5
v 0.9 2.8 -0.5
v 1 2.2 -0.5
v 1 2.7 -0.5
v 0.1 2.2 -0.6
v 0.1 2.7 -0.6
v 0.2 2.1 -0.6
v 0.2 2.2 -0.6
v 0.2 2.7 -0.6
v 0.2 2.8 -0.6
v 0.3 2 -0.6
v 0.3 2.1 -0.6
v 0.3 2.2 -0.6
v 0.3 2.7 -0.6
v 0.3 2.8 -0.6
v 0.3 2.9 -0.6
v 0.4 2 -0.6
v 0.4 2.1 -0.6
v 0.4 2.8 -0.6
v 0.4 2.9 -0.6
v 0.4 3 -0.6
v 0.6 2 -0.6
v 0.6 2.1 -0.6
v 0.6 2.8 -0.6
v 0.6 2.9 -0.6
v 0.6 3 -0.6
v 0.7 2 -0.6
v 0.7 2.1 -0.6
v 0.7 2.2 -0.6
v 0.7 2.7 -0.6
v 0.7 2.8 -0.6
v 0.7 2.9 -0.6
v 0.8 2.1 -0.6
v 0.8 2.2 -0.6
v 0.8 2.7 -0.6
v 0.8 2.8 -0.6
v 0.9 2.2 -0.6
v 0.9 2.7 -0.6
v 0.2 2.2 -0.7
v 0.2 2.7 -0.7
v 0.3 2.1 -0.7
v 0.3 2.2 -0.7
v 0.3 2.7 -0.7
v 0.3 2.8 -0.7
v 0.4 2 -0.7
v 0.4 2.1 -0.7
v 0.4 2.2 -0.7
v 0.4 2.7 -0.7
v 0.4 2.8 -0.7
v 0.4 2.9 -0.7
v 0.6 2 -0.7
v 0.6 2.1 -0.7
v 0.6 2.2 -0.7
v 0.6 2.7 -0.7
v 0.6 2.8 -0.7
v 0.6 2.9 -0.7
v 0.7 2.1 -0.7
v 0.7 2.2 -0.7
v 0.7 2.7 -0.7
v 0.7 2.8 -0.7
v 0.8 2.2 -0.7
v 0.8 2.7 -0.7
v 0.3 2.2 -0.8
v 0.3 2.7 -0.8
v 0.4 2.1 -0.8
v 0.4 2.2 -0.8
v 0.4 2.3 -0.8
v 0.4 2.6 -0.8
v 0.4 2.7 -0.8
v 0.4 2.8 -0.8
v 0.6 2.1 -0.8
v 0.6 2.2 -0.8
v 0.6 2.3 -0.8
v 0.6 2.6 -0.8
v 0.6 2.7 -0.8
v 0.6 2.8 -0.8
v 0.7 2.2 -0.8
v 0.7 2.7 -0.8
v 0.4 2.3 -0.9
v 0.4 2.6 -0.9
v 0.6 2.3 -0.9
v 0.6 2.6 -0.9
v 0.4 2 -0.1
v 0.6 2 -0.1
v 0.2 2 -0.2
v 0.3 2 -0.2
v 0.4 2 -0.2
v 0.6 2 -0.2
v 0.7 2 -0.2
v 0.8 2 -0.2
v 0.2 2 -0.5
v 0.3 2 -0.5
v 0.7 2 -0.5
v 0.8 2 -0.5
v 0.3 2 -0.6
v 0.4 2 -0.6
v 0.6 2 -0.6
v 0.7 2 -0.6
v 0.4 2 -0.7
v 0.6 2 -0.7
v 0.2 2.1 0
v 0.3 2.1 0
v 0.7 2.1 0
v 0.8 2.1 0
v 0.2 2.1 -0.1
v 0.3 2.1 -0.1
v 0.4 2.1 -0.1
v 0.6 2.1 -0.1
v 0.7 2.1 -0.1
v 0.8 2.1 -0.1
v 0.1 2.1 -0.2
v 0.2 2.1 -0.2
v 0.3 2.1 -0.2
v 0.4 2.1 -0.2
v 0.6 2.1 -0.2
v 0.7 2.1 -0.2
v 0.8 2.1 -0.2
v 0.9 2.1 -0.2
v 0.1 2.1 -0.5
v 0.2 2.1 -0.5
v 0.3 2.1 -0.5
v 0.7 2.1 -0.5
v 0.8 2.1 -0.5
v 0.9 2.1 -0.5
v 0.2 2.1 -0.6
v 0.3 2.1 -0.6
v 0.4 2.1 -0.6
v 0.6 2.1 -0.6
v 0.7 2.1 -0.6
v 0.8 2.1 -0.6
v 0.3 2.1 -0.7
v 0.4 2.1 -0.7
v 0.6 2.1 -0.7
v 0.7 2.1 -0.7
v 0.4 2.1 -0.8
v 0.6 2.1 -0.8
v 0.3 2.2 0
v 0.7 2.2 0
v 0.1 2.2 -0.1
v 0.2 2.2 -0.1
v 0.3 2.2 -0.1
v 0.7 2.2 -0.1
v 0.8 2.2 -0.1
v 0.9 2.2 -0.1
v 0 2.2 -0.2
v 0.1 2.2 -0.2
v 0.2 2.2 -0.2
v 0.3 2.2 -0.2
v 0.7 2.2 -0.2
v 0.8 2.2 -0.2
v 0.9 2.2 -0.2
v 1 2.2 -0.2
v 0 2.2 -0.5
v 0.1 2.2 -0.5
v 0.2 2.2 -0.5
v 0.8 2.2 -0.5
v 0.9 2.2 -0.5
v 1 2.2 -0.5
v 0.1 2.2 -0.6
v 0.2 2.2 -0.6
v 0.3 2.2 -0.6
v 0.7 2.2 -0.6
v 0.8 2.2 -0.6
v 0.9 2.2 -0.6
v 0.2 2.2 -0.7
v 0.3 2.2 -0.7
v 0.4 2.2 -0.7
v 0.6 2.2 -0.7
v 0.7 2.2 -0.7
v 0.8 2.2 -0.7
v 0.3 2.2 -0.8
v 0.4 2.2 -0.8
v 0.6 2.2 -0.8
v 0.7 2.2 -0.8
v 0.4 2.3 -0.8
v 0.6 2.3 -0.8
v 0.4 2.3 -0.9
v 0.6 2.3 -0.9
v 0.3 2.6 0
v 0.4 2.6 0
v 0.6 2.6 0
v 0.7 2.6 0
v 0.3 2.6 -0.1
v 0.4 2.6 -0.1
v 0.6 2.6 -0.1
v 0.7 2.6 -0.1
v 0.3 2.3 0
v 0.4 2.3 0
v 0.6 2.3 0
v 0.7 2.3 0
v 0.3 2.3 -0.1
v 0.4 2.3 -0.1
v 0.6 2.3 -0.1
v 0.7 2.3 -0.1
v 0.4 2.6 -0.8
v 0.6 2.6 -0.8
v 0.4 2.6 -0.9
v 0.6 2.6 -0.9
v 0.2 2.7 0
v 0.3 2.7 0
v 0.7 2.7 0
v 0.8 2.7 0
v 0.1 2.7 -0.1
v 0.2 2.7 -0.1
v 0.3 2.7 -0.1
v 0.7 2.7 -0.1
v 0.8 2.7 -0.1
v 0.9 2.7 -0.1
v 0 2.7 -0.2
v 0.1 2.7 -0.2
v 0.2 2.7 -0.2
v 0.8 2.7 -0.2
v 0.9 2.7 -0.2
v 1 2.7 -0.2
v 0 2.7 -0.5
v 0.1 2.7 -0.5
v 0.2 2.7 -0.5
v 0.8 2.7 -0.5
v 0.9 2.7 -0.5
v 1 2.7 -0.5
v 0.1 2.7 -0.6
v 0.2 2.7 -0.6
v 0.3 2.7 -0.6
v 0.7 2.7 -0.6
v 0.8 2.7 -0.6
v 0.9 2.7 -0.6
v 0.2 2.7 -0.7
v 0.3 2.7 -0.7
v 0.4 2.7 -0.7
v 0.6 2.7 -0.7
v 0.7 2.7 -0.7
v 0.8 2.7 -0.7
v 0.3 2.7 -0.8
v 0.4 2.7 -0.8
v 0.6 2.7 -0.8
v 0.7 2.7 -0.8
v 0.3 2.8 0
v 0.4 2.8 0
v 0.6 2.8 0
v 0.7 2.8 0
v 0.2 2.8 -0.1
v 0.3 2.8 -0.1
v 0.4 2.8 -0.1
v 0.6 2.8 -0.1
v 0.7 2.8 -0.1
v 0.8 2.8 -0.1
v 0.1 2.8 -0.2
v 0.2 2.8 -0.2
v 0.3 2.8 -0.2
v 0.7 2.8 -0.2
v 0.8 2.8 -0.2
v 0.9 2.8 -0.2
v 0.1 2.8 -0.5
v 0.2 2.8 -0.5
v 0.3 2.8 -0.5
v 0.7 2.8 -0.5
v 0.8 2.8 -0.5
v 0.9 2.8 -0.5
v 0.2 2.8 -0.6
v 0.3 2.8 -0.6
v 0.4 2.8 -0.6
v 0.6 2.8 -0.6
v 0.7 2.8 -0.6
v 0.8 2.8 -0.6
v 0.3 2.8 -0.7
v 0.4 2.8 -0.7
v 0.6 2.8 -0.7
v 0.7 2.8 -0.7
v 0.4 2.8 -0.8
v 0.6 2.8 -0.8
v 0.4 2.9 0
v 0.6 2.9 0
v 0.3 2.9 -0.1
v 0.4 2.9 -0.1
v 0.6 2.9 -0.1
v 0.7 2.9 -0.1
v 0.2 2.9 -0.2
v 0.3 2.9 -0.2
v 0.7 2.9 -0.2
v 0.8 2.9 -0.2
v 0.2 2.9 -0.5
v 0.3 2.9 -0.5
v 0.7 2.9 -0.5
v 0.8 2.9 -0.5
v 0.3 2.9 -0.6
v 0.4 2.9 -0.6
v 0.6 2.9 -0.6
v 0.7 2.9 -0.6
v 0.4 2.9 -0.7
v 0.6 2.9 -0.7
v 0.4 3 -0.1
v 0.6 3 -0.1
v 0.4 3 -0.6
v 0.6 3 -0.6

# faces
f 3/3/1 2/3/1 1/3/1
f 4/3/1 2/3/1 3/3/1
f 8/3/1 6/3/1 5/3/1
f 9/3/1 6/3/1 8/3/1
f 11/3/1 8/3/1 7/3/1
f 12/3/1 8/3/1 11/3/1
f 13/3/1 10/3/1 9/3/1
f 14/3/1 10/3/1 13/3/1
f 15/3/1 13/3/1 12/3/1
f 16/3/1 13/3/1 15/3/1
f 21/5/1 18/5/1 17/5/1
f 22/5/1 18/5/1 21/5/1
f 24/2/1 20/2/1 19/2/1
f 25/3/1 23/3/1 22/3/1
f 26/3/1 23/3/1 25/3/1
f 28/2/1 24/2/1 19/2/1
f 29/2/1 24/2/1 28/2/1
f 32/3/1 27/3/1 26/3/1
f 33/3/1 27/3/1 32/3/1
f 34/3/1 30/3/1 29/3/1
f 35/3/1 30/3/1 34/3/1
f 36/3/1 32/3/1 31/3/1
f 37/3/1 32/3/1 36/3/1
f 38/3/1 36/3/1 35/3/1
f 39/3/1 36/3/1 38/3/1
f 44/5/1 41/5/1 40/5/1
f 45/5/1 41/5/1 44/5/1
f 47/1/1 43/1/1 42/1/1
f 48/1/1 43/1/1 47/1/1
f 49/3/1 46/3/1 45/3/1
f 50/3/1 46/3/1 49/3/1
f 55/3/1 51/3/1 50/3/1
f 56/3/1 51/3/1 55/3/1
f 57/3/1 53/3/1 52/3/1
f 58/3/1 53/3/1 57/3/1
f 61/3/1 55/3/1 54/3/1
f 62/3/1 55/3/1 61/3/1
f 63/3/1 59/3/1 58/3/1
f 64/3/1 59/3/1 63/3/1
f 65/3/1 61/3/1 60/3/1
f 66/3/1 61/3/1 65/3/1
f 71/1/1 68/1/1 67/1/1
f 72/1/1 68/1/1 71/1/1
f 73/5/1 70/5/1 69/5/1
f 74/5/1 70/5/1 73/5/1
f 76/3/1 75/3/1 74/3/1
f 77/3/1 75/3/1 76/3/1
f 82/2/1 79/2/1 78/2/1
f 83/2/1 79/2/1 82/2/1
f 84/3/1 81/3/1 80/3/1
f 85/3/1 81/3/1 84/3/1
f 91/3/1 87/3/1 86/3/1
f 92/3/1 87/3/1 91/3/1
f 93/3/1 89/3/1 88/3/1
f 94/3/1 89/3/1 93/3/1
f 95/3/1 91/3/1 90/3/1
f 96/3/1 91/3/1 95/3/1
f 97/3/1 95/3/1 94/3/1
f 98/3/1 95/3/1 97/3/1
f 101/2/1 100/2/1 99/2/1
f 102/2/1 100/2/1 101/2/1
f 105/2/1 104/2/1 103/2/1
f 106/2/1 104/2/1 105/2/1
f 107/2/2 108/2/2 109/2/2
f 109/2/2 108/2/2 110/2/2
f 111/2/2 112/2/2 113/2/2
f 113/2/2 112/2/2 114/2/2
f 115/1/2 116/1/2 119/1/2
f 119/1/2 116/1/2 120/1/2
f 117/5/2 118/5/2 121/5/2
f 121/5/2 118/5/2 122/5/2
f 122/3/2 123/3/2 124/3/2
f 124/3/2 123/3/2 125/3/2
f 126/2/2 127/2/2 130/2/2
f 130/2/2 127/2/2 131/2/2
f 128/3/2 129/3/2 132/3/2
f 132/3/2 129/3/2 133/3/2
f 134/3/2 135/3/2 139/3/2
f 139/3/2 135/3/2 140/3/2
f 136/3/2 137/3/2 141/3/2
f 141/3/2 137/3/2 142/3/2
f 138/3/2 139/3/2 143/3/2
f 143/3/2 139/3/2 144/3/2
f 142/3/2 143/3/2 145/3/2
f 145/3/2 143/3/2 146/3/2
f 147/5/2 148/5/2 151/5/2
f 151/5/2 148/5/2 152/5/2
f 149/1/2 150/1/2 154/1/2
f 154/1/2 150/1/2 155/1/2
f 152/3/2 153/3/2 156/3/2
f 156/3/2 153/3/2 157/3/2
f 157/3/2 158/3/2 162/3/2
f 162/3/2 158/3/2 163/3/2
f 159/3/2 160/3/2 164/3/2
f 164/3/2 160/3/2 165/3/2
f 161/3/2 162/3/2 168/3/2
f 168/3/2 162/3/2 169/3/2
f 165/3/2 166/3/2 170/3/2
f 170/3/2 166/3/2 171/3/2
f 167/3/2 168/3/2 172/3/2
f 172/3/2 168/3/2 173/3/2
f 174/5/2 175/5/2 178/5/2
f 178/5/2 175/5/2 179/5/2
f 176/2/2 177/2/2 181/2/2
f 179/3/2 180/3/2 182/3/2
f 182/3/2 180/3/2 183/3/2
f 176/2/2 181/2/2 185/2/2
f 185/2/2 181/2/2 186/2/2
f 183/3/2 184/3/2 189/3/2
f 189/3/2 184/3/2 190/3/2
f 186/3/2 187/3/2 191/3/2
f 191/3/2 187/3/2 192/3/2
f 188/3/2 189/3/2 193/3/2
f 193/3/2 189/3/2 194/3/2
f 192/3/2 193/3/2 195/3/2
f 195/3/2 193/3/2 196/3/2
f 197/3/2 198/3/2 200/3/2
f 200/3/2 198/3/2 201/3/2
f 199/3/2 200/3/2 203/3/2
f 203/3/2 200/3/2 204/3/2
f 201/3/2 202/3/2 205/3/2
f 205/3/2 202/3/2 206/3/2
f 204/3/2 205/3/2 207/3/2
f 207/3/2 205/3/2 208/3/2
f 209/3/2 210/3/2 211/3/2
f 211/3/2 210/3/2 212/3/2
f 215/2/3 214/2/3 213/2/3
f 216/2/3 214/2/3 215/2/3
f 217/2/3 214/2/3 216/2/3
f 218/2/3 214/2/3 217/2/3
f 219/2/3 214/2/3 218/2/3
f 221/2/3 217/2/3 216/2/3
f 222/2/3 219/2/3 218/2/3
f 223/3/3 220/3/3 219/3/3
f 223/2/3 219/2/3 222/2/3
f 224/3/3 220/3/3 223/3/3
f 226/2/3 222/2/3 221/2/3
f 226/2/3 221/2/3 216/2/3
f 226/2/3 224/2/3 223/2/3
f 226/2/3 223/2/3 222/2/3
f 227/2/3 224/2/3 226/2/3
f 228/2/3 224/2/3 227/2/3
f 229/3/3 225/3/3 224/3/3
f 229/2/3 224/2/3 228/2/3
f 230/3/3 225/3/3 229/3/3
f 232/2/3 226/2/3 216/2/3
f 233/2/3 226/2/3 232/2/3
f 234/2/3 228/2/3 227/2/3
f 235/3/3 229/3/3 228/3/3
f 235/2/3 228/2/3 234/2/3
f 236/3/3 229/3/3 235/3/3
f 237/2/3 233/2/3 232/2/3
f 237/2/3 234/2/3 233/2/3
f 237/2/3 235/2/3 234/2/3
f 237/2/3 232/2/3 231/2/3
f 238/2/3 235/2/3 237/2/3
f 241/3/3 240/3/3 239/3/3
f 242/3/3 240/3/3 241/3/3
f 248/3/3 243/3/3 242/3/3
f 249/3/3 243/3/3 248/3/3
f 252/1/3 245/1/3 244/1/3
f 253/6/3 247/6/3 246/6/3
f 254/6/3 247/6/3 253/6/3
f 255/3/3 250/3/3 249/3/3
f 256/3/3 250/3/3 255/3/3
f 258/1/3 252/1/3 251/1/3
f 259/1/3 245/1/3 252/1/3
f 259/1/3 252/1/3 258/1/3
f 263/3/3 257/3/3 256/3/3
f 264/3/3 257/3/3 263/3/3
f 265/1/3 245/1/3 259/1/3
f 266/1/3 245/1/3 265/1/3
f 267/6/3 261/6/3 260/6/3
f 268/6/3 261/6/3 267/6/3
f 270/3/3 263/3/3 262/3/3
f 271/3/3 263/3/3 270/3/3
f 273/3/3 270/3/3 269/3/3
f 274/3/3 270/3/3 273/3/3
f 275/3/3 273/3/3 272/3/3
f 276/3/3 273/3/3 275/3/3
f 280/3/3 278/3/3 277/3/3
f 281/3/3 278/3/3 280/3/3
f 284/3/3 280/3/3 279/3/3
f 285/3/3 280/3/3 284/3/3
f 286/3/3 282/3/3 281/3/3
f 287/3/3 282/3/3 286/3/3
f 289/5/3 284/5/3 283/5/3
f 290/1/3 285/1/3 284/1/3
f 290/5/3 284/5/3 289/5/3
f 291/1/3 285/1/3 290/1/3
f 292/3/3 288/3/3 287/3/3
f 293/3/3 288/3/3 292/3/3
f 294/1/3 290/1/3 289/1/3
f 295/1/3 290/1/3 294/1/3
f 298/1/3 297/1/3 296/1/3
f 299/1/3 297/1/3 298/1/3
f 303/5/3 299/5/3 298/5/3
f 304/1/3 300/1/3 299/1/3
f 304/5/3 299/5/3 303/5/3
f 305/1/3 300/1/3 304/1/3
f 307/3/3 302/3/3 301/3/3
f 308/3/3 302/3/3 307/3/3
f 309/3/3 305/3/3 304/3/3
f 310/3/3 305/3/3 309/3/3
f 311/3/3 307/3/3 306/3/3
f 312/3/3 307/3/3 311/3/3
f 313/3/3 311/3/3 310/3/3
f 314/3/3 311/3/3 313/3/3
f 315/2/4 316/2/4 317/2/4
f 317/2/4 316/2/4 318/2/4
f 319/2/4 320/2/4 321/2/4
f 321/2/4 320/2/4 322/2/4
f 323/3/4 324/3/4 326/3/4
f 326/3/4 324/3/4 327/3/4
f 325/3/4 326/3/4 330/3/4
f 330/3/4 326/3/4 331/3/4
f 327/3/4 328/3/4 332/3/4
f 332/3/4 328/3/4 333/3/4
f 329/5/4 330/5/4 335/5/4
f 335/5/4 330/5/4 336/5/4
f 333/3/4 334/3/4 337/3/4
f 337/3/4 334/3/4 338/3/4
f 339/5/4 340/5/4 343/5/4
f 343/5/4 340/5/4 344/5/4
f 341/3/4 342/3/4 347/3/4
f 347/3/4 342/3/4 348/3/4
f 344/3/4 345/3/4 349/3/4
f 349/3/4 345/3/4 350/3/4
f 346/3/4 347/3/4 351/3/4
f 351/3/4 347/3/4 352/3/4
f 350/3/4 351/3/4 353/3/4
f 353/3/4 351/3/4 354/3/4
f 355/3/4 356/3/4 358/3/4
f 358/3/4 356/3/4 359/3/4
f 357/3/4 358/3/4 362/3/4
f 362/3/4 358/3/4 363/3/4
f 359/3/4 360/3/4 364/3/4
f 364/3/4 360/3/4 365/3/4
f 361/5/4 362/5/4 367/5/4
f 367/5/4 362/5/4 368/5/4
f 365/3/4 366/3/4 369/3/4
f 369/3/4 366/3/4 370/3/4
f 370/3/4 371/3/4 375/3/4
f 375/3/4 371/3/4 376/3/4
f 372/5/4 373/5/4 377/5/4
f 377/5/4 373/5/4 378/5/4
f 374/3/4 375/3/4 381/3/4
f 381/3/4 375/3/4 382/3/4
f 378/3/4 379/3/4 383/3/4
f 383/3/4 379/3/4 384/3/4
f 380/3/4 381/3/4 385/3/4
f 385/3/4 381/3/4 386/3/4
f 384/3/4 385/3/4 387/3/4
f 387/3/4 385/3/4 388/3/4
f 389/3/4 390/3/4 392/3/4
f 392/3/4 390/3/4 393/3/4
f 391/3/4 392/3/4 396/3/4
f 396/3/4 392/3/4 397/3/4
f 393/3/4 394/3/4 398/3/4
f 398/3/4 394/3/4 399/3/4
f 395/5/4 396/5/4 401/5/4
f 401/5/4 396/5/4 402/5/4
f 399/3/4 400/3/4 405/3/4
f 405/3/4 400/3/4 406/3/4
f 402/3/4 403/3/4 407/3/4
f 407/3/4 403/3/4 408/3/4
f 404/3/4 405/3/4 409/3/4
f 409/3/4 405/3/4 410/3/4
f 408/3/4 409/3/4 411/3/4
f 411/3/4 409/3/4 412/3/4
f 413/3/4 414/3/4 416/3/4
f 416/3/4 414/3/4 417/3/4
f 417/3/4 414/3/4 418/3/4
f 418/3/4 414/3/4 419/3/4
f 415/3/4 416/3/4 421/3/4
f 416/3/4 417/3/4 421/3/4
f 421/3/4 417/3/4 422/3/4
f 422/3/4 417/3/4 423/3/4
f 419/3/4 420/3/4 424/3/4
f 418/3/4 419/3/4 424/3/4
f 424/3/4 420/3/4 425/3/4
f 425/3/4 420/3/4 426/3/4
f 422/3/4 423/3/4 427/3/4
f 424/3/4 425/3/4 427/3/4
f 423/3/4 424/3/4 427/3/4
f 427/3/4 425/3/4 428/3/4
f 429/3/4 430/3/4 431/3/4
f 431/3/4 430/3/4 432/3/4
f 437/1/5 434/1/5 433/1/5
f 438/1/5 434/1/5 437/1/5
f 441/5/5 436/5/5 435/5/5
f 442/1/5 437/1/5 436/1/5
f 442/5/5 436/5/5 441/5/5
f 442/1/5 438/1/5 437/1/5
f 442/1/5 439/1/5 438/1/5
f 443/5/5 440/5/5 439/5/5
f 443/1/5 439/1/5 442/1/5
f 444/5/5 440/5/5 443/5/5
f 445/5/5 443/5/5 442/5/5
f 446/5/5 443/5/5 445/5/5
f 447/5/5 443/5/5 446/5/5
f 448/5/5 443/5/5 447/5/5
f 449/5/5 447/5/5 446/5/5
f 450/5/5 447/5/5 449/5/5
f 455/2/5 452/2/5 451/2/5
f 456/2/5 452/2/5 455/2/5
f 459/2/5 454/2/5 453/2/5
f 460/2/5 454/2/5 459/2/5
f 463/1/5 457/1/5 456/1/5
f 464/1/5 457/1/5 463/1/5
f 465/1/5 459/1/5 458/1/5
f 466/1/5 459/1/5 465/1/5
f 469/3/5 462/3/5 461/3/5
f 470/3/5 462/3/5 469/3/5
f 473/3/5 468/3/5 467/3/5
f 474/3/5 468/3/5 473/3/5
f 475/3/5 471/3/5 470/3/5
f 476/3/5 471/3/5 475/3/5
f 479/3/5 473/3/5 472/3/5
f 480/3/5 473/3/5 479/3/5
f 481/3/5 477/3/5 476/3/5
f 482/3/5 477/3/5 481/3/5
f 483/3/5 479/3/5 478/3/5
f 484/3/5 479/3/5 483/3/5
f 485/3/5 483/3/5 482/3/5
f 486/3/5 483/3/5 485/3/5
f 491/2/5 488/2/5 487/2/5
f 492/2/5 488/2/5 491/2/5
f 496/3/5 490/3/5 489/3/5
f 497/1/5 491/1/5 490/1/5
f 497/3/5 490/3/5 496/3/5
f 498/1/5 491/1/5 497/1/5
f 499/1/5 493/1/5 492/1/5
f 500/3/5 494/3/5 493/3/5
f 500/1/5 493/1/5 499/1/5
f 501/3/5 494/3/5 500/3/5
f 503/3/5 496/3/5 495/3/5
f 504/3/5 496/3/5 503/3/5
f 507/3/5 502/3/5 501/3/5
f 508/3/5 502/3/5 507/3/5
f 509/3/5 505/3/5 504/3/5
f 510/3/5 505/3/5 509/3/5
f 513/3/5 507/3/5 506/3/5
f 514/3/5 507/3/5 513/3/5
f 515/3/5 511/3/5 510/3/5
f 516/3/5 511/3/5 515/3/5
f 519/3/5 513/3/5 512/3/5
f 520/3/5 513/3/5 519/3/5
f 521/3/5 517/3/5 516/3/5
f 522/3/5 517/3/5 521/3/5
f 523/3/5 519/3/5 518/3/5
f 524/3/5 519/3/5 523/3/5
f 527/3/5 526/3/5 525/3/5
f 528/3/5 526/3/5 527/3/5
f 533/2/5 530/2/5 529/2/5
f 534/2/5 530/2/5 533/2/5
f 535/2/5 532/2/5 531/2/5
f 536/2/5 532/2/5 535/2/5
f 537/2/6 538/2/6 541/2/6
f 541/2/6 538/2/6 542/2/6
f 539/2/6 540/2/6 543/2/6
f 543/2/6 540/2/6 544/2/6
f 545/3/6 546/3/6 547/3/6
f 547/3/6 546/3/6 548/3/6
f 549/2/6 550/2/6 554/2/6
f 554/2/6 550/2/6 555/2/6
f 551/2/6 552/2/6 556/2/6
f 556/2/6 552/2/6 557/2/6
f 553/3/6 554/3/6 560/3/6
f 560/3/6 554/3/6 561/3/6
f 557/3/6 558/3/6 562/3/6
f 562/3/6 558/3/6 563/3/6
f 559/3/6 560/3/6 565/3/6
f 565/3/6 560/3/6 566/3/6
f 563/3/6 564/3/6 569/3/6
f 569/3/6 564/3/6 570/3/6
f 566/3/6 567/3/6 571/3/6
f 571/3/6 567/3/6 572/3/6
f 568/3/6 569/3/6 575/3/6
f 575/3/6 569/3/6 576/3/6
f 572/3/6 573/3/6 577/3/6
f 577/3/6 573/3/6 578/3/6
f 574/3/6 575/3/6 581/3/6
f 581/3/6 575/3/6 582/3/6
f 578/3/6 579/3/6 583/3/6
f 583/3/6 579/3/6 584/3/6
f 580/3/6 581/3/6 585/3/6
f 585/3/6 581/3/6 586/3/6
f 587/3/6 588/3/6 592/3/6
f 592/3/6 588/3/6 593/3/6
f 589/3/6 590/3/6 594/3/6
f 594/3/6 590/3/6 595/3/6
f 591/3/6 592/3/6 598/3/6
f 598/3/6 592/3/6 599/3/6
f 595/3/6 596/3/6 600/3/6
f 600/3/6 596/3/6 601/3/6
f 597/3/6 598/3/6 603/3/6
f 603/3/6 598/3/6 604/3/6
f 601/3/6 602/3/6 607/3/6
f 607/3/6 602/3/6 608/3/6
f 604/3/6 605/3/6 609/3/6
f 609/3/6 605/3/6 610/3/6
f 606/3/6 607/3/6 613/3/6
f 613/3/6 607/3/6 614/3/6
f 610/3/6 611/3/6 615/3/6
f 615/3/6 611/3/6 616/3/6
f 612/3/6 613/3/6 617/3/6
f 617/3/6 613/3/6 618/3/6
f 616/3/6 617/3/6 619/3/6
f 619/3/6 617/3/6 620/3/6
f 621/3/6 622/3/6 624/3/6
f 624/3/6 622/3/6 625/3/6
f 623/3/6 624/3/6 628/3/6
f 625/3/6 626/3/6 629/3/6
f 627/3/6 628/3/6 631/3/6
f 628/3/6 624/3/6 632/3/6
f 631/3/6 628/3/6 632/3/6
f 629/3/6 630/3/6 633/3/6
f 625/3/6 629/3/6 633/3/6
f 633/3/6 630/3/6 634/3/6
f 632/3/6 624/3/6 635/3/6
f 635/3/6 624/3/6 636/3/6
f 625/3/6 633/3/6 637/3/6
f 637/3/6 633/3/6 638/3/6
f 636/3/6 637/3/6 639/3/6
f 639/3/6 637/3/6 640/3/6
f 641/3/6 642/3/6 643/3/6
f 643/3/6 642/3/6 644/3/6
