# MagicaVoxel @ Ephtracy

# group
o 

# material
mtllib Right hand.mtl
usemtl palette

# normals
vn -1 0 0
vn 1 0 0
vn 0 0 1
vn 0 0 -1
vn 0 -1 0
vn 0 1 0

# texcoords
vt 0.0605469 0.5
vt 0.431641 0.5
vt 0.978516 0.5
vt 0.982422 0.5

# verts
v 0 2.1 -0.1
v 0 2.1 -0.4
v 0 2.5 -0.1
v 0 2.5 -0.4
v 0.1 2 -0.1
v 0.1 2 -0.4
v 0.1 2.1 0
v 0.1 2.1 -0.1
v 0.1 2.1 -0.4
v 0.1 2.1 -0.5
v 0.1 2.5 0
v 0.1 2.5 -0.1
v 0.1 2.5 -0.4
v 0.1 2.5 -0.5
v 0.3 2.2 -0.1
v 0.3 2.2 -0.4
v 0.3 2.4 -0.1
v 0.3 2.4 -0.4
v 0.2 2.2 0
v 0.2 2.2 -0.1
v 0.2 2.2 -0.4
v 0.2 2.2 -0.5
v 0.2 2.4 -0.1
v 0.2 2.4 -0.4
v 0.2 2.5 0
v 0.2 2.5 -0.1
v 0.2 2.5 -0.4
v 0.2 2.5 -0.5
v 0.3 2 -0.1
v 0.3 2 -0.4
v 0.3 2.1 0
v 0.3 2.1 -0.1
v 0.3 2.1 -0.4
v 0.3 2.1 -0.5
v 0.3 2.2 0
v 0.3 2.2 -0.1
v 0.3 2.2 -0.4
v 0.3 2.2 -0.5
v 0.4 2.2 -0.1
v 0.4 2.2 -0.4
v 0.4 2.5 -0.1
v 0.4 2.5 -0.4
v 0.1 2.1 0
v 0.1 2.5 0
v 0.2 2.2 0
v 0.2 2.5 0
v 0.3 2.1 0
v 0.3 2.2 0
v 0 2.1 -0.1
v 0 2.5 -0.1
v 0.1 2 -0.1
v 0.1 2.1 -0.1
v 0.1 2.5 -0.1
v 0.2 2 -0.1
v 0.2 2.1 -0.1
v 0.2 2.4 -0.1
v 0.2 2.5 -0.1
v 0.3 2 -0.1
v 0.3 2.1 -0.1
v 0.3 2.2 -0.1
v 0.3 2.4 -0.1
v 0.4 2.2 -0.1
v 0.4 2.5 -0.1
v 0 2.1 -0.4
v 0 2.5 -0.4
v 0.1 2 -0.4
v 0.1 2.1 -0.4
v 0.1 2.5 -0.4
v 0.2 2 -0.4
v 0.2 2.1 -0.4
v 0.2 2.4 -0.4
v 0.2 2.5 -0.4
v 0.3 2 -0.4
v 0.3 2.1 -0.4
v 0.3 2.2 -0.4
v 0.3 2.4 -0.4
v 0.4 2.2 -0.4
v 0.4 2.5 -0.4
v 0.1 2.1 -0.5
v 0.1 2.5 -0.5
v 0.2 2.2 -0.5
v 0.2 2.5 -0.5
v 0.3 2.1 -0.5
v 0.3 2.2 -0.5
v 0.1 2 -0.1
v 0.2 2 -0.1
v 0.3 2 -0.1
v 0.1 2 -0.4
v 0.2 2 -0.4
v 0.3 2 -0.4
v 0.1 2.1 0
v 0.3 2.1 0
v 0 2.1 -0.1
v 0.1 2.1 -0.1
v 0.2 2.1 -0.1
v 0.3 2.1 -0.1
v 0 2.1 -0.4
v 0.1 2.1 -0.4
v 0.2 2.1 -0.4
v 0.3 2.1 -0.4
v 0.1 2.1 -0.5
v 0.3 2.1 -0.5
v 0.3 2.2 -0.1
v 0.4 2.2 -0.1
v 0.3 2.2 -0.4
v 0.4 2.2 -0.4
v 0.2 2.4 -0.1
v 0.3 2.4 -0.1
v 0.2 2.4 -0.4
v 0.3 2.4 -0.4
v 0.2 2.2 0
v 0.3 2.2 0
v 0.2 2.2 -0.1
v 0.3 2.2 -0.1
v 0.2 2.2 -0.4
v 0.3 2.2 -0.4
v 0.2 2.2 -0.5
v 0.3 2.2 -0.5
v 0.1 2.5 0
v 0.2 2.5 0
v 0 2.5 -0.1
v 0.1 2.5 -0.1
v 0.2 2.5 -0.1
v 0.4 2.5 -0.1
v 0 2.5 -0.4
v 0.1 2.5 -0.4
v 0.2 2.5 -0.4
v 0.4 2.5 -0.4
v 0.1 2.5 -0.5
v 0.2 2.5 -0.5

# faces
f 3/3/1 2/3/1 1/3/1
f 4/3/1 2/3/1 3/3/1
f 8/3/1 6/3/1 5/3/1
f 9/3/1 6/3/1 8/3/1
f 11/4/1 8/4/1 7/4/1
f 12/4/1 8/4/1 11/4/1
f 13/4/1 10/4/1 9/4/1
f 14/4/1 10/4/1 13/4/1
f 17/1/1 16/1/1 15/1/1
f 18/1/1 16/1/1 17/1/1
f 19/4/2 20/4/2 23/4/2
f 20/1/2 21/1/2 23/1/2
f 21/4/2 22/4/2 24/4/2
f 23/1/2 21/1/2 24/1/2
f 19/4/2 23/4/2 25/4/2
f 25/4/2 23/4/2 26/4/2
f 24/4/2 22/4/2 27/4/2
f 27/4/2 22/4/2 28/4/2
f 29/4/2 30/4/2 32/4/2
f 32/4/2 30/4/2 33/4/2
f 31/4/2 32/4/2 35/4/2
f 32/1/2 33/1/2 36/1/2
f 35/4/2 32/4/2 36/4/2
f 33/4/2 34/4/2 37/4/2
f 36/1/2 33/1/2 37/1/2
f 37/4/2 34/4/2 38/4/2
f 39/1/2 40/1/2 41/1/2
f 41/1/2 40/1/2 42/1/2
f 45/4/3 44/4/3 43/4/3
f 46/4/3 44/4/3 45/4/3
f 47/4/3 45/4/3 43/4/3
f 48/4/3 45/4/3 47/4/3
f 52/3/3 50/3/3 49/3/3
f 53/3/3 50/3/3 52/3/3
f 54/3/3 52/3/3 51/3/3
f 55/3/3 52/3/3 54/3/3
f 58/4/3 55/4/3 54/4/3
f 59/4/3 55/4/3 58/4/3
f 61/1/3 57/1/3 56/1/3
f 62/1/3 61/1/3 60/1/3
f 63/1/3 57/1/3 61/1/3
f 63/1/3 61/1/3 62/1/3
f 64/3/4 65/3/4 67/3/4
f 67/3/4 65/3/4 68/3/4
f 66/3/4 67/3/4 69/3/4
f 69/3/4 67/3/4 70/3/4
f 69/4/4 70/4/4 73/4/4
f 73/4/4 70/4/4 74/4/4
f 71/1/4 72/1/4 76/1/4
f 75/1/4 76/1/4 77/1/4
f 76/1/4 72/1/4 78/1/4
f 77/1/4 76/1/4 78/1/4
f 79/4/4 80/4/4 81/4/4
f 81/4/4 80/4/4 82/4/4
f 79/4/4 81/4/4 83/4/4
f 83/4/4 81/4/4 84/4/4
f 88/3/5 86/3/5 85/3/5
f 89/4/5 87/4/5 86/4/5
f 89/3/5 86/3/5 88/3/5
f 90/4/5 87/4/5 89/4/5
f 94/4/5 92/4/5 91/4/5
f 95/4/5 92/4/5 94/4/5
f 96/4/5 92/4/5 95/4/5
f 97/3/5 94/3/5 93/3/5
f 98/3/5 94/3/5 97/3/5
f 101/4/5 100/4/5 99/4/5
f 101/4/5 99/4/5 98/4/5
f 102/4/5 100/4/5 101/4/5
f 105/1/5 104/1/5 103/1/5
f 106/1/5 104/1/5 105/1/5
f 109/1/5 108/1/5 107/1/5
f 110/1/5 108/1/5 109/1/5
f 111/4/6 112/4/6 113/4/6
f 113/4/6 112/4/6 114/4/6
f 113/1/6 114/1/6 115/1/6
f 115/1/6 114/1/6 116/1/6
f 115/4/6 116/4/6 117/4/6
f 117/4/6 116/4/6 118/4/6
f 119/4/6 120/4/6 122/4/6
f 122/4/6 120/4/6 123/4/6
f 121/3/6 122/3/6 125/3/6
f 123/1/6 124/1/6 126/1/6
f 125/3/6 122/3/6 126/3/6
f 122/1/6 123/1/6 126/1/6
f 126/1/6 124/1/6 127/1/6
f 127/1/6 124/1/6 128/1/6
f 126/4/6 127/4/6 129/4/6
f 129/4/6 127/4/6 130/4/6
